<?xml version="1.0" encoding="utf-8"?>
<!-- Generator: Adobe Illustrator 24.1.2, SVG Export Plug-In . SVG Version: 6.00 Build 0)  -->
<svg version="1.1" id="Слой_1" xmlns="http://www.w3.org/2000/svg" xmlns:xlink="http://www.w3.org/1999/xlink" x="0px" y="0px"
	 viewBox="0 0 397.45 35.32" style="enable-background:new 0 0 397.45 35.32;" xml:space="preserve">
<style type="text/css">
	.st0{fill:#6B72B4;}
	.st1{fill:#FFFFFF;}
	.st2{fill:#E84528;}
	.st3{fill:#EA5D11;}
	.st4{fill:#F7B80C;}
	.st5{fill:#E7314A;}
</style>
<g>
	<path class="st0" d="M30.99,31.87l-11.27,1.45l-1.36-5.13h-5.18l-1.14,5.13L0.46,32.19L9.5,1.93l12.63-0.64L30.99,31.87z
		 M17.54,21.24l-1.73-7.9l-1.68,7.9H17.54z"/>
	<path class="st0" d="M58.09,11.92c0,1.18-0.1,2.25-0.31,3.21c-0.2,0.96-0.53,1.84-0.96,2.65c-0.44,0.8-1.01,1.54-1.7,2.23
		c-0.7,0.68-1.54,1.33-2.52,1.95L58,31.6l-10.22,2l-3.5-9.68l-2.82,0.09l-0.41,9.45h-9.77c0.08-3.45,0.15-6.89,0.22-10.31
		c0.07-3.42,0.15-6.86,0.24-10.31c0.03-1.74,0.06-3.47,0.09-5.18c0.03-1.71,0.09-3.44,0.18-5.18c1.06-0.39,2.1-0.72,3.13-0.98
		c1.03-0.26,2.06-0.46,3.1-0.6c1.04-0.14,2.09-0.24,3.16-0.29c1.07-0.05,2.16-0.08,3.28-0.08c1.73,0,3.4,0.24,5.01,0.72
		c1.61,0.48,3.04,1.19,4.28,2.15c1.24,0.95,2.24,2.14,2.99,3.57C57.72,8.37,58.09,10.03,58.09,11.92z M47.92,12.65
		c0-0.64-0.09-1.22-0.26-1.75c-0.17-0.53-0.43-0.99-0.77-1.37c-0.34-0.39-0.76-0.69-1.27-0.91c-0.51-0.22-1.1-0.33-1.78-0.33
		c-0.3,0-0.6,0.02-0.89,0.06c-0.29,0.04-0.57,0.09-0.84,0.17l-0.36,8.45h0.55c0.65,0,1.31-0.08,1.99-0.25
		c0.67-0.17,1.28-0.42,1.82-0.77c0.54-0.35,0.98-0.8,1.32-1.34C47.74,14.06,47.92,13.41,47.92,12.65z"/>
	<path class="st0" d="M83.67,1.34l-0.23,9.63l-6.77,0.27l-1.73,21.53l-9.59,0.5l0.05-21.53l-6.77,0.36l0.27-10.72L83.67,1.34z"/>
	<path class="st0" d="M115.51,1.07c-0.09,1.42-0.17,2.83-0.25,4.23s-0.17,2.8-0.29,4.22l-9.63,0.5v2.86h8.36l-0.45,7.04l-7.95,0.23
		l0.05,13.45l-11.49,0.23l0.73-32.76H115.51z"/>
	<path class="st0" d="M144.75,17.78c0,1.38-0.16,2.71-0.48,3.99c-0.32,1.28-0.78,2.48-1.37,3.6c-0.6,1.12-1.33,2.15-2.18,3.08
		c-0.86,0.93-1.82,1.73-2.88,2.4c-1.07,0.67-2.23,1.19-3.49,1.56c-1.26,0.37-2.59,0.56-4,0.56c-1.36,0-2.66-0.17-3.9-0.52
		c-1.23-0.35-2.39-0.84-3.46-1.47c-1.08-0.63-2.05-1.39-2.92-2.27c-0.87-0.89-1.61-1.87-2.23-2.95c-0.61-1.08-1.09-2.24-1.43-3.49
		c-0.34-1.24-0.51-2.54-0.51-3.88c0-1.32,0.16-2.61,0.48-3.87c0.32-1.26,0.78-2.46,1.37-3.58c0.6-1.12,1.32-2.15,2.17-3.09
		c0.85-0.94,1.8-1.75,2.85-2.43c1.05-0.68,2.19-1.21,3.42-1.59c1.23-0.38,2.52-0.57,3.88-0.57c2.2,0,4.2,0.34,6.01,1.02
		c1.81,0.68,3.35,1.66,4.63,2.92c1.28,1.26,2.27,2.79,2.98,4.59C144.4,13.57,144.75,15.57,144.75,17.78z M134.66,18.38
		c0-0.65-0.09-1.28-0.28-1.9c-0.19-0.61-0.47-1.16-0.83-1.64c-0.36-0.48-0.81-0.86-1.35-1.16c-0.54-0.29-1.15-0.44-1.85-0.44
		c-0.71,0-1.35,0.13-1.91,0.39c-0.56,0.26-1.04,0.61-1.44,1.06c-0.4,0.45-0.71,0.97-0.92,1.57c-0.21,0.6-0.32,1.23-0.32,1.9
		c0,0.64,0.09,1.27,0.27,1.91c0.18,0.64,0.45,1.21,0.82,1.73c0.36,0.52,0.81,0.93,1.35,1.25c0.54,0.32,1.16,0.48,1.87,0.48
		c0.71,0,1.35-0.14,1.92-0.42c0.57-0.28,1.05-0.66,1.44-1.14c0.39-0.48,0.7-1.03,0.91-1.65C134.56,19.69,134.66,19.04,134.66,18.38z
		"/>
	<path class="st0" d="M172.96,11.92c0,1.18-0.1,2.25-0.31,3.21c-0.2,0.96-0.53,1.84-0.96,2.65c-0.44,0.8-1.01,1.54-1.7,2.23
		c-0.7,0.68-1.54,1.33-2.52,1.95l5.41,9.63l-10.22,2l-3.5-9.68l-2.82,0.09l-0.41,9.45h-9.77c0.08-3.45,0.15-6.89,0.22-10.31
		c0.07-3.42,0.15-6.86,0.24-10.31c0.03-1.74,0.06-3.47,0.09-5.18c0.03-1.71,0.09-3.44,0.18-5.18c1.06-0.39,2.1-0.72,3.13-0.98
		c1.03-0.26,2.06-0.46,3.1-0.6c1.04-0.14,2.09-0.24,3.16-0.29c1.07-0.05,2.16-0.08,3.28-0.08c1.73,0,3.4,0.24,5.01,0.72
		c1.61,0.48,3.04,1.19,4.28,2.15c1.24,0.95,2.24,2.14,2.99,3.57C172.59,8.37,172.96,10.03,172.96,11.92z M162.78,12.65
		c0-0.64-0.09-1.22-0.26-1.75c-0.17-0.53-0.43-0.99-0.77-1.37c-0.34-0.39-0.76-0.69-1.27-0.91c-0.51-0.22-1.1-0.33-1.78-0.33
		c-0.3,0-0.6,0.02-0.89,0.06c-0.29,0.04-0.57,0.09-0.84,0.17l-0.36,8.45h0.55c0.65,0,1.31-0.08,1.99-0.25
		c0.67-0.17,1.28-0.42,1.82-0.77c0.54-0.35,0.98-0.8,1.32-1.34C162.61,14.06,162.78,13.41,162.78,12.65z"/>
	<path class="st0" d="M205.12,1.07c-0.09,1.42-0.17,2.83-0.25,4.23c-0.08,1.39-0.17,2.8-0.3,4.22l-9.63,0.5l-0.23,2.86h6.77
		l-0.5,7.04l-6.81,0.23l-0.23,3.32h5.63h4c-0.09,1.67-0.19,3.32-0.28,4.96c-0.1,1.64-0.19,3.29-0.26,4.94l-19.58,0.45l0.73-32.76
		H205.12z"/>
	<path class="st0" d="M233.68,1.97l-8.31,31.62l-11.27,0.64L203.88,2.29l10.77-1L219,19.92l4.23-18.63L233.68,1.97z"/>
	<path class="st0" d="M255.92,1.07c-0.09,1.42-0.17,2.83-0.25,4.23c-0.08,1.39-0.17,2.8-0.3,4.22l-9.63,0.5l-0.23,2.86h6.77
		l-0.5,7.04l-6.81,0.23l-0.23,3.32h5.63h4c-0.09,1.67-0.19,3.32-0.28,4.96c-0.1,1.64-0.19,3.29-0.26,4.94l-19.58,0.45l0.73-32.76
		H255.92z"/>
	<path class="st0" d="M283.31,11.92c0,1.18-0.1,2.25-0.31,3.21c-0.2,0.96-0.53,1.84-0.97,2.65c-0.44,0.8-1.01,1.54-1.7,2.23
		c-0.7,0.68-1.54,1.33-2.52,1.95l5.41,9.63l-10.22,2l-3.5-9.68l-2.82,0.09l-0.41,9.45h-9.77c0.08-3.45,0.15-6.89,0.22-10.31
		c0.07-3.42,0.15-6.86,0.24-10.31c0.03-1.74,0.06-3.47,0.09-5.18c0.03-1.71,0.09-3.44,0.18-5.18c1.06-0.39,2.1-0.72,3.14-0.98
		c1.03-0.26,2.06-0.46,3.1-0.6c1.04-0.14,2.09-0.24,3.16-0.29c1.07-0.05,2.16-0.08,3.28-0.08c1.73,0,3.4,0.24,5.01,0.72
		c1.61,0.48,3.04,1.19,4.28,2.15c1.24,0.95,2.24,2.14,2.99,3.57C282.94,8.37,283.31,10.03,283.31,11.92z M273.13,12.65
		c0-0.64-0.09-1.22-0.26-1.75c-0.17-0.53-0.43-0.99-0.77-1.37c-0.34-0.39-0.76-0.69-1.27-0.91c-0.51-0.22-1.1-0.33-1.78-0.33
		c-0.3,0-0.6,0.02-0.89,0.06c-0.29,0.04-0.57,0.09-0.84,0.17l-0.36,8.45h0.55c0.65,0,1.31-0.08,1.99-0.25
		c0.67-0.17,1.28-0.42,1.82-0.77c0.54-0.35,0.98-0.8,1.32-1.34C272.96,14.06,273.13,13.41,273.13,12.65z"/>
	<path class="st0" d="M314.07,3.07l-12.49,17.44l-0.59,14.22h-10.77l0.27-14.13l-6.5-16.85l11.58-1.45l1.82,9.81l5.77-9.81
		L314.07,3.07z"/>
	<path class="st0" d="M341.19,17.78c0,1.38-0.16,2.71-0.48,3.99c-0.32,1.28-0.78,2.48-1.37,3.6c-0.6,1.12-1.32,2.15-2.18,3.08
		c-0.86,0.93-1.82,1.73-2.89,2.4c-1.07,0.67-2.23,1.19-3.49,1.56c-1.26,0.37-2.59,0.56-4,0.56c-1.36,0-2.66-0.17-3.89-0.52
		c-1.24-0.35-2.39-0.84-3.46-1.47c-1.08-0.63-2.05-1.39-2.92-2.27c-0.87-0.89-1.61-1.87-2.23-2.95c-0.61-1.08-1.09-2.24-1.43-3.49
		c-0.34-1.24-0.51-2.54-0.51-3.88c0-1.32,0.16-2.61,0.48-3.87c0.32-1.26,0.78-2.46,1.37-3.58c0.6-1.12,1.32-2.15,2.17-3.09
		c0.85-0.94,1.8-1.75,2.85-2.43c1.05-0.68,2.19-1.21,3.42-1.59c1.23-0.38,2.52-0.57,3.88-0.57c2.2,0,4.2,0.34,6.01,1.02
		c1.81,0.68,3.35,1.66,4.63,2.92c1.28,1.26,2.27,2.79,2.97,4.59C340.84,13.57,341.19,15.57,341.19,17.78z"/>
	<path class="st0" d="M373.67,1.25l-1.64,30.8l-11.9,1.09l-6.36-16.49l-1,16.81h-10.22l0.82-32.21l11.36-0.55l7.86,16.35l0.36-15.45
		L373.67,1.25z"/>
	<path class="st0" d="M397.02,1.07c-0.09,1.42-0.17,2.83-0.25,4.23c-0.08,1.39-0.17,2.8-0.3,4.22l-9.63,0.5l-0.23,2.86h6.77
		l-0.5,7.04l-6.81,0.23l-0.23,3.32h5.63h4c-0.09,1.67-0.19,3.32-0.28,4.96c-0.1,1.64-0.19,3.29-0.26,4.94l-19.58,0.45l0.73-32.76
		H397.02z"/>
</g>
<path class="st0" d="M17.71,16.82"/>
<ellipse transform="matrix(0.8231 -0.5679 0.5679 0.8231 43.3395 185.9361)" class="st1" cx="320.13" cy="23.4" rx="3.41" ry="5.45"/>
<ellipse class="st2" cx="336.42" cy="18.23" rx="3.19" ry="3.1"/>
<ellipse class="st3" cx="333.11" cy="10.07" rx="3.19" ry="3.1"/>
<ellipse class="st4" cx="324.67" cy="8.41" rx="3.19" ry="3.1"/>
<ellipse class="st5" cx="332.79" cy="26.09" rx="3.19" ry="3.1"/>
</svg>
