<?xml version="1.0" encoding="utf-8"?>
<!-- Generator: Adobe Illustrator 24.1.2, SVG Export Plug-In . SVG Version: 6.00 Build 0)  -->
<svg version="1.1" id="Слой_1" xmlns="http://www.w3.org/2000/svg" xmlns:xlink="http://www.w3.org/1999/xlink" x="0px" y="0px"
	 viewBox="0 0 150.96 140.72" style="enable-background:new 0 0 150.96 140.72;" xml:space="preserve">
<style type="text/css">
	.st0{fill:#6B72B4;}
	.st1{fill:#F18605;}
	.st2{fill:#E7314A;}
	.st3{fill:#F7B807;}
	.st4{fill:#E84528;}
	.st5{fill:#3D358A;}
	.st6{fill:#E7304A;}
	.st7{fill:#EB5C11;}
	.st8{fill:#E73051;}
	.st9{fill:#F18609;}
	.st10{display:none;fill:#FFFFFF;}
	.st11{display:none;fill:#E84528;}
	.st12{display:none;fill:#EA5D11;}
	.st13{display:none;fill:#F7B80C;}
	.st14{display:none;fill:#E7314A;}
</style>
<g>
	<path class="st0" d="M97.06,133.77c13.56-6.4,24.44-15.77,31.7-28.98c1.65-3.01,3.08-6.08,4.24-9.24c2-5.44,3.23-11.12,3.49-17.07
		c0.01-0.19-0.17-0.34-0.36-0.29c-1.43,0.42-1.56,1.92-2.01,3c-1.35,3.25-2.89,6.39-4.79,9.34c-3.51,5.48-6.83,11.12-11.86,15.45
		c-0.02,0.02-0.05,0.04-0.08,0.05c-2.18,0.81-3.35,2.8-4.96,4.27c-6.07,5.54-12.53,10.43-20.49,13c-0.01,0-0.03,0.01-0.04,0.02
		c-1.6,0.89-3.64,0.76-5.07,2.07c-0.08-0.04-0.16-0.08-0.24-0.12c-10.66,0.89-20.22-2.1-28.95-8.11
		c-4.39-3.02-8.24-6.63-11.98-10.37c-0.01-0.01-0.02-0.02-0.03-0.03c-0.79-0.63-1.73-0.94-2.66-1.28c-1.81-0.62-3.45-1.61-5.18-2.4
		c-1.13-0.51-2.19-1.41-3.57-0.73c-0.03,0.08,0.06,0.16,0.03,0.23c0.08-0.23-0.12-0.01-0.12-0.02c0.65-1.35-0.62-1.52-1.29-1.98
		c-5.43-3.65-10.16-8.05-13.48-13.67c-3.24-5.49-5.85-11.31-7-17.67c-0.18-1.01-0.11-1.76-1.11-2.14c-0.09-0.04-0.25-0.96-0.33-0.9
		C-0.28,74.7-2.59,88.19,5.77,99.35c5.45,7.27,12.96,11.44,21.53,13.94c0,0,0,0,0,0c5.33,1.73,9.97,4.51,13.23,9.15
		C54.47,142.26,77.7,142.7,97.06,133.77"/>
	<path class="st1" d="M34.1,102.46c-0.08-0.01-0.14-0.04-0.19-0.1c-1.35-1.68-3.23-2.85-4.92-3.97c-6.01-3.99-9.7-9.71-12.86-15.86
		c-2.24-4.36-4.37-8.71-4.75-13.73c-0.04-0.53-0.39-1.16-0.75-1.67c0.05-0.4,0.08-0.64,0.14-1.03c4.28-3.54,9.02-6.39,13.86-9.07
		c0.18-0.1,0.41,0.03,0.42,0.24c0.01,0.22,0.02,0.43,0.02,0.65c0,0.04,0.01,0.08,0.03,0.12c1.36,2.51,0.87,5.38,1.41,8.05
		c0.63,3.12,1.73,6.01,2.62,9.01c1.41,4.78,3.13,9.43,5.49,13.81c1.13,2.1,2.51,4.06,3.42,6.28c0.74,1.12,0.77,2.58,1.69,3.61
		c0.19,0.19,0.36,0.4,0.53,0.62c0.73,0.8,1.2,1.8,2.07,2.51c1.35,1.11,1.64,2.42,0.68,3.88c-0.06,0.1-0.19,0.15-0.3,0.12
		c-2.42-0.5-4.44-1.94-6.64-2.93C35.41,102.7,34.79,102.52,34.1,102.46z"/>
	<path class="st0" d="M46.29,112.47l5.06-4.43c-3.7-0.75-6.52-1.97-8.23-2.67c-10.53-4.38-18.95-12.62-21.87-15.58
		c-3.07-3.1-4.45-4.94-5.42-4.52c-2.58,1.13,1.64,15.46,1.64,15.46L46.29,112.47z"/>
	<path class="st2" d="M147.45,8.75c2.78-0.02,3.91,1.79,2.53,4.35c-1.55,2.88-4.04,4.79-7.2,5.62c-2.26,0.6-4.25-1.93-3.47-4.25
		C140.18,11.88,144.61,8.77,147.45,8.75z"/>
	<path class="st3" d="M104.66,14.72c-1.38-0.92-2.78-1.77-4.2-2.56l0,0c-0.01,0-0.01,0-0.02-0.01C94.88,9.07,88.99,7,82.83,5.99
		c-7.25-1.45-13.88-1.5-19.43-0.96l0,0c-8.82,0.54-16.94,3.49-23.18,6.56c-1.89,0.87-3.94,1.94-6.13,3.26
		c-2.62,1.58-4.68,3.1-6.03,4.17c-0.08,0.06-0.12,0.1-0.12,0.1l0,0c-0.67,0.53-1.16,0.95-1.43,1.18c-0.87,0.75-3.89,3.35-6.5,6.67
		c-5.01,6.38-8.03,13.95-9.33,22.24c-0.86,5.54-0.63,11.52,0.06,17.17c1.16,0.19,1.88-0.85,2.63-1.45c2.15-1.73,4.55-3.1,6.83-4.64
		c1.64-1.11,3.84-1.46,4.83-3.47c0.36-1.9,0.98-3.8,1.03-5.71c0.11-3.49,1.48-6.63,2.94-9.57c2.73-5.53,7.68-8.87,13.15-11.47
		c5.93-2.81,12.25-2.39,18.53-2.19c0.2,0.29,0.36,0.78,0.62,0.84c6.2,1.46,11.84,4.41,17.75,6.63c4.35,1.63,8.61,2.14,12.81-0.81
		c6.42-4.5,15.71-6.63,23.82-5.98c0.49,0.04-0.11-0.54,0.17-0.96C113.23,22.54,109.05,17.64,104.66,14.72z"/>
	<path class="st1" d="M14.31,70.81l-3.63-4.41c0,0,6.6-5.95,19.16-11.23"/>
	<path class="st0" d="M126.71,87.89l8.24,1.32c0,0,5.61-17.57,1.07-23.75C131.47,59.28,126.71,87.89,126.71,87.89z"/>
	<path class="st4" d="M141.09,56.11c0-0.09,0.01-0.17,0.01-0.26c0-0.07,0-0.12,0-0.12l0,0c0.01-0.63,0.01-1.26-0.02-1.9
		c-0.49-14.05-10.86-25.14-24.16-26.18c-0.06,0-0.12,0-0.18,0c-0.78,0.08-0.64,0.11-0.69,0.81c-0.04,0.58,0.05,1.15,0.27,1.69
		c2.25,5.54,3.3,11.38,3.77,17.33c0.02,0.19,0.09,0.38,0.23,0.52c0.56,0.58,1.44,0.74,1.93,1.41c0.69,0.65,1.52,0.98,2.4,1.34
		c3.3,1.36,6.08,3.2,7.83,6.61c2,3.89,3.18,7.99,4.26,12.15c0.01,0.05,0.02,0.11,0.03,0.16c0.04,0.52,0.46,0.8,0.87,0.8l-0.28,3.46
		c1.49-3.79,2.38-7.53,2.92-10.63c0.47-2.33,0.75-4.7,0.81-7.1C141.09,56.18,141.09,56.14,141.09,56.11z"/>
	<path class="st5" d="M122.97,52.75L122.97,52.75c0.6-1.83,2.81-2.55,4.36-1.41c2.45,1.81,5.81,5.02,8.33,10.19
		c2.31,4.73,2.62,10.19,0.99,15.2c-3.96,12.22-15.82,37.6-47.87,48.24"/>
	<path class="st6" d="M119.75,52.77c0,0-7.35,69.25-76.63,52.59"/>
	<path class="st6" d="M51.71,104.96l4.1,5.64c0,0,37.93,7.88,51.86-6.32s16.05-46.43,13.93-47.93c-2.12-1.5-16.12,29.63-16.12,29.63
		L91.5,99.46l-23.84,5.36L51.71,104.96z"/>
	<path class="st6" d="M120.16,47.78c-0.03-0.01-0.07,0-0.1,0c-2.72,0.66-4.84-1.3-7.36-1.72c-5.22-0.86-10.42-1.49-15.71-1.79
		c-3.9-0.22-7.75-0.6-11.61,0.23c0,0,0,0,0,0c0,0,0,0,0,0c-8.44-0.78-16.76,1.17-25.16,1.15c-0.56,0-1.05,0.14-1.57,0.43
		c-2.3,1.27-4.74,2.09-7.42,1.77c-2.08-0.25-3.69,0.44-4.9,2.07c-0.07,0.09-0.19,0.13-0.3,0.1c-4.54-1.21-8.07,2.88-12.48,2.46
		c-0.33-0.03-0.79,0.7-1.08,1.15c-0.4,0.61-0.92,0.97-1.62,0.85c-2.21-0.39-3.62,0.55-4.51,2.51c-0.21,0.47-0.59,0.78-1.08,0.93
		c-0.12,0.04-0.2,0.13-0.21,0.26c-0.41,6.34,1.29,12.34,3.56,18.09c0.69,1.76,0,3.93,1.41,5.13c2.39,2.06,1.93,5.31,3.64,7.75
		c0.76,1.08,2.37,1.93,2.42,3.41c0.05,1.47,0.76,2.39,1.73,3.27c0,0,0,0,0,0c0.76,0.97,0,2.73,1.59,3.26c0.1,0.03,0.22,0,0.29-0.08
		c0.24-0.25,0.42-0.55,0.76-0.7c-0.25,0.23-0.49,0.46-0.74,0.7c-0.09,0.08-0.12,0.21-0.07,0.32c0.12,0.26,0.24,0.52,0.32,0.8
		c0.57,2.09,4.35,2.58,3.62,5.32c-0.04,0.13,0.74,0.28,0.87,0.34c0.71,0.34,0.1,0.95,0.81,1.29c0.91,0.52,1.87,0.69,2.89,0.4
		c0.01,0,0.03-0.01,0.04-0.01c1.13-0.47,1.1-0.46,1.41,0.58c0.14,0.47,0.64,0.58,1.06,0.72c3.22,0.41,6.47,0.21,9.71,0.17
		c3.02-0.04,6.09,0.47,9.07-0.43c0.02-0.01,0.05-0.02,0.07-0.03c0.36-0.2,0.58-0.5,0.74-0.86c0.05-0.12,0.19-0.2,0.31-0.16
		c0.43,0.11,0.88,0.06,1.35-0.1c0.03-0.01,0.05-0.02,0.08-0.04c1.14-0.85,2.5-0.66,3.79-0.81c0.01,0,0.02,0,0.03-0.01
		c6.46-1.33,12.68-4.08,19.51-3.2c2.64,0.34,4.84-0.98,7.01-2.22c0.7-0.4,1.51-0.81,1.07-1.86c-0.01-0.03-0.02-0.07-0.02-0.1
		l-0.02-9.69c0-0.07,0.02-0.13,0.07-0.18c0.67-0.8,1.6-1.38,2.07-2.35c0.01-0.03,0.04-0.06,0.06-0.08c3.54-3.03,5.1-7.46,7.82-11.06
		c0.41-0.42,0.42-1.03,0.71-1.49c4.28-6.7,5.66-14.3,6.71-21.97c0.18-1.34,0.7-2.35,1.45-3.34c0.05-0.06,0.07-0.14,0.05-0.22
		C122.04,47.48,120.96,47.92,120.16,47.78z"/>
	<path class="st6" d="M29.69,61.53l-4.52-8.36c0,0-3.47,7.2,5.27,30.35s19.6,27.11,19.6,27.11"/>
	<path class="st7" d="M114.57,27.09c0.69,0.17,1.47,0,2.09,0.43c0.11,0.07,0.15,0.2,0.11,0.33c-0.25,0.88,0.04,1.7,0.38,2.49
		c1.99,4.54,2.7,9.39,3.41,14.23c0.18,1.25,0.5,2.56-0.63,3.58c-0.02,0.02-0.05,0.04-0.08,0.06c-0.97,0.46-1.96,0.38-2.94,0.05
		c-9.32-3.12-19-3.34-28.68-3.45c-0.95-0.01-1.83,0.34-2.75,0.43c-1.66,0.15-3.35,0.21-5,0.06c-6.61-0.59-13.04,1.41-19.61,1.24
		c-1.41-0.04-2.69,0.69-3.97,1.19c-1.5,0.58-3,1-4.59,0.87c-2.14-0.17-3.99,0.46-5.66,1.73c-0.02,0.01-0.03,0.02-0.05,0.03
		c-1.02,0.49-2.12,0.5-3.22,0.48c-1.52-0.03-2.93,0.22-4.16,1.18c-0.51,0.4-1.13,0.82-1.75,0.77c-3.22-0.24-5.35,2.78-8.49,2.76
		c-0.66,0-1,0.75-1.42,1.23c-0.65,0.74-1.25,1.6-2.45,1.27c-0.05-0.01-0.09-0.04-0.13-0.07c-0.33-0.3-0.15-0.14-0.23-0.57
		c-0.01-0.03-0.45,0.55-0.45,0.41c0-6.54,1.94-13.9,5.92-19.53c3.24-4.58,7.78-7.13,12.55-9.28c4.96-2.24,10.27-2.45,15.6-1.91
		c1.54,0.16,3.06,0.49,4.52,1.01c6.8,2.42,13.35,5.5,20.28,7.55c2.47,0.73,4.76,0,6.97-1.11c2.4-1.21,4.56-2.83,6.96-4.06
		C102.61,27.65,108.4,26.45,114.57,27.09z"/>
	<path class="st8" d="M72.93,107.08c-0.4-0.89-0.05-0.11-0.45-1c0.68-0.57,1.66-0.13,2.51-0.16c0.18-0.01,0.33,0.15,0.29,0.33
		c-0.02,0.12-0.04,0.25-0.06,0.37c-0.02,0.12-0.12,0.22-0.25,0.23C74.29,106.93,73.61,107.01,72.93,107.08z"/>
</g>
<path class="st3" d="M27.45,119.87c-0.13-0.12-0.3-0.22-0.55-0.32c-0.05-0.02-0.11-0.03-0.16-0.05c-0.11-0.04-0.23-0.07-0.37-0.1
	c-0.09-0.02-0.17-0.06-0.26-0.07c-0.1-0.02-0.2-0.02-0.3-0.03c-0.2-0.03-0.42-0.06-0.66-0.08c-0.03,0-0.07,0-0.1,0
	c-0.28-0.02-0.57-0.03-0.85-0.04c-5.55-0.21-9.03,2.41-10.62,4.02c-0.03,0.03-0.06,0.06-0.09,0.09c-0.63,0.65-0.95,1.12-0.95,1.12
	l0,0.01c-0.21,0.28-0.42,0.56-0.61,0.84c-1.81,2.66-0.17,6.29,2.81,6.75L14.74,132c0,0,0.1,0.01,0.25,0.02
	c0.07,0.01,0.14,0.02,0.22,0.02c0.08,0,0.17,0,0.25,0c2.03,0.07,8.03-0.2,11.82-5.38c0.31-0.4,0.59-0.82,0.85-1.21
	c0.25-0.37,0.42-0.75,0.55-1.14c0.01-0.03,0.03-0.05,0.05-0.08l-0.03,0.02C29.25,122.52,28.71,120.76,27.45,119.87z"/>
<path class="st9" d="M135.6,3.09c-2.86-2.13-6.05-3.11-9.66-2.28c-5.11,1.18-10.01,7.19-10.39,12.8c-0.02,0.23-0.03,0.45-0.03,0.67
	c-0.01,0.21-0.01,0.42-0.01,0.61l0,0c0,0,0,0.28,0.03,0.72c0,0.02,0,0.04,0.01,0.06c0.24,2.72,2.08,11.08,15.82,0.36
	c0.39-0.29,0.77-0.6,1.15-0.93c0.17-0.14,0.34-0.27,0.51-0.41l-0.03,0c1.22-1.1,2.39-2.36,3.45-3.8
	C138.28,8.4,137.81,4.73,135.6,3.09z"/>
<path class="st3" d="M32.01,23.56"/>
<path class="st6" d="M30.1,59.48"/>
<path class="st0" d="M27.11,99.46l1.15-2.48c0,0-14.75-12.59-17.14-30.4c-0.06-0.46-0.3-0.22-0.37-0.22c-0.02,0-0.06,0.06-0.06,0.08
	c-0.02,0.43-0.03,0.17-0.05,0.27c-0.02,0.14-0.61,6.73-1.11,8.77c-0.02,0.08-0.09,0.38-0.18,0.38c-0.33-0.01-0.38-4.51-0.79-4.02
	c-5.07,6.1-1.78,9.57,2.04,16.52l5.74,10.47L27.11,99.46z"/>
<path class="st1" d="M14.46,66.49l-2.17-1.4l-1.55,1.27c0,0,0.3,4.87,5.54,15.4"/>
<path class="st6" d="M48.13,51.01C46.2,49.22,28.13,65.38,26.2,63.58c-1-0.93,4.38-1.25,3.38-2.18c0,0,0,0,0,0
	c0.01-0.07,0.01-0.22-2.93-0.8c-2.43-0.48,1.32-2.08,1.33-2.17c0,0-1.27,0.2-2.73,0.43c-0.91,0.14-1.34-1.09-0.54-1.53
	C47.13,44.87,69.36,44.1,78.81,43.89c4.59-0.1,21.12-1.67,41.35,3.89c3.14,0.86,5.59,3.84,7.35,4.41"/>
<path class="st4" d="M118.29,31.28L118.29,31.28c-1.12-0.4-1.73-1.34-2.02-2.49l-0.62-1.6c0,0,8.41,0.18,15.94,6.57"/>
<path class="st6" d="M29.85,58.27l-3.32-1.93l-2.25,1.37c0,0,0.13,5.99,1.45,10.37"/>
<path class="st5" d="M128.09,62.74l2.91-7.58c0,0-2.53-3.63-7.48-6.07c-1.02-0.5-2.14-0.95-3.37-1.31c0,0-0.19,6.99-2.43,16.43"/>
<path class="st5" d="M123.23,50.19"/>
<path class="st5" d="M137.23,69.98c-0.1-0.19-0.33-0.4-0.48-0.46c-0.32-7.05-2.38-13.12-8.48-17.58c-1.92-1.41-4.15-1.73-5.95-3.08
	c0,0,0,0,0,0c-1.46-0.1-1.89,0.24-1.56,2.23c0.54,3.25-0.83,6.16-1.29,9.29c-0.1,0.68-0.21,1.48-0.34,2.31l-0.89-0.66
	c0,0-13.25,59.6-74.81,43.4c-1.03-0.27,0.71,0.48,3.54,1.63c-0.56,0.01-1.13,0.02-1.69,0.03c0,0,0,0,0,0
	c7.11,8.07,15.51,14.24,25.96,17.33c5,1.48,10.08,2.31,15.28,1.04c1.6-0.32,3.23-0.57,4.71-1.28c0.65-0.31,1.33-0.54,2.02-0.74
	c0.07-0.02,0.14-0.04,0.21-0.07c9.48-3.74,17.19-9.89,23.85-17.46c1.87,0.36,2.61-1.39,3.49-2.43c2.81-3.33,5.27-6.92,7.72-10.52
	c2.85-4.19,4.7-8.9,7.01-13.36c0.49-1.81,0.96-3.55,1.45-5.36C136.97,72.8,137.7,71.43,137.23,69.98z"/>
<path class="st5" d="M49.32,107.6l-6.21-2.24c0,0,7.35,9.15,18.68,15.16"/>
<path class="st4" d="M125.6,30.9"/>
<path class="st4" d="M115.65,27.19c0,0,4.51,14.03,4.51,20.59c0,0,0.03-0.01,0.04-0.01c0.07,0.02,0.58-0.27,0.68-0.27
	c0.66-0.02,2.49-0.92,2.94-1.79c1-1.93-0.25-4.34,0.08-4.15c0.58,0.35,0.99,6.94,1.84,6.4c1.72-1.09,1.02-1.41,1.02-1.41
	l-1.16-12.09L115.65,27.19z"/>
<path class="st4" d="M120.24,47.55l-0.09,0.23c0,0,1.71,0.52,2.21,0.78c0.5,0.26-0.02-1.6-0.02-1.6l-1.66,0.19L120.24,47.55z"/>
<path class="st5" d="M120.64,48.3l-0.09-0.39c0,0,11.82,2.71,16.06,15.92s-21.57,17.87-21.57,17.87l9.33-27.81"/>
<path class="st0" d="M174.47,74.14"/>
<ellipse transform="matrix(0.8231 -0.5679 0.5679 0.8231 38.519 285.0988)" class="st10" cx="476.9" cy="80.72" rx="3.41" ry="5.45"/>
<ellipse class="st11" cx="493.18" cy="75.55" rx="3.19" ry="3.1"/>
<ellipse class="st12" cx="489.88" cy="67.39" rx="3.19" ry="3.1"/>
<ellipse class="st13" cx="481.43" cy="65.73" rx="3.19" ry="3.1"/>
<ellipse class="st14" cx="489.55" cy="83.41" rx="3.19" ry="3.1"/>
</svg>
